# xmcd CD database file
#
# Track frame offsets:
#	150
#	44427
#	80797
#	122339
#	150095
#	186486
#	218771
#	257960
#
# Disc length: 3992 seconds
#
# Revision: 0
# Processed by: cddbd v1.5.2PL0 Copyright (c) Steve Scherf et al.
# Submitted via: CDex 1.70beta2
#
DISCID=680f9608
DTITLE=Maciek Grzywacz - Things Never Done
DYEAR=2006
DGENRE=Jazz
TTITLE0=Evenness
TTITLE1=Seven Fat Years
TTITLE2=Mountainous Duchy
TTITLE3=Deceptively Peaceful
TTITLE4=Countdown
TTITLE5=Things Never Done
TTITLE6=Minor Lunacy
TTITLE7=Hocus Pocus
EXTD=YEAR: 2006
EXTT0=
EXTT1=
EXTT2=
EXTT3=
EXTT4=
EXTT5=
EXTT6=
EXTT7=
PLAYORDER=
